<?xml version="1.0" encoding="UTF-8" standalone="no"?>
<!-- Created with Inkscape (http://www.inkscape.org/) -->

<svg
   xmlns:dc="http://purl.org/dc/elements/1.1/"
   xmlns:cc="http://creativecommons.org/ns#"
   xmlns:rdf="http://www.w3.org/1999/02/22-rdf-syntax-ns#"
   xmlns:svg="http://www.w3.org/2000/svg"
   xmlns="http://www.w3.org/2000/svg"
   xmlns:sodipodi="http://sodipodi.sourceforge.net/DTD/sodipodi-0.dtd"
   xmlns:inkscape="http://www.inkscape.org/namespaces/inkscape"
   width="773.36578"
   height="773.37488"
   id="svg2"
   version="1.1"
   inkscape:version="0.48.4 r9939"
   sodipodi:docname="fig10_clapeyron_simple.svg">
  <defs
     id="defs4">
    <marker
       inkscape:stockid="Tail"
       orient="auto"
       refY="0.0"
       refX="0.0"
       id="Tail"
       style="overflow:visible">
      <g
         id="g3993"
         transform="scale(-1.2)">
        <path
           id="path3995"
           d="M -3.8048674,-3.9585227 L 0.54352094,0"
           style="fill:none;fill-rule:evenodd;stroke:#000000;stroke-width:0.8;stroke-linecap:round" />
        <path
           id="path3997"
           d="M -1.2866832,-3.9585227 L 3.0617053,0"
           style="fill:none;fill-rule:evenodd;stroke:#000000;stroke-width:0.8;stroke-linecap:round" />
        <path
           id="path3999"
           d="M 1.3053582,-3.9585227 L 5.6537466,0"
           style="fill:none;fill-rule:evenodd;stroke:#000000;stroke-width:0.8;stroke-linecap:round" />
        <path
           id="path4001"
           d="M -3.8048674,4.1775838 L 0.54352094,0.21974226"
           style="fill:none;fill-rule:evenodd;stroke:#000000;stroke-width:0.8;stroke-linecap:round" />
        <path
           id="path4003"
           d="M -1.2866832,4.1775838 L 3.0617053,0.21974226"
           style="fill:none;fill-rule:evenodd;stroke:#000000;stroke-width:0.8;stroke-linecap:round" />
        <path
           id="path4005"
           d="M 1.3053582,4.1775838 L 5.6537466,0.21974226"
           style="fill:none;fill-rule:evenodd;stroke:#000000;stroke-width:0.8;stroke-linecap:round" />
      </g>
    </marker>
    <marker
       inkscape:stockid="DiamondL"
       orient="auto"
       refY="0.0"
       refX="0.0"
       id="DiamondL"
       style="overflow:visible">
      <path
         id="path4036"
         d="M 0,-7.0710768 L -7.0710894,0 L 0,7.0710589 L 7.0710462,0 L 0,-7.0710768 z "
         style="fill-rule:evenodd;stroke:#000000;stroke-width:1.0pt"
         transform="scale(0.8)" />
    </marker>
    <marker
       inkscape:stockid="DiamondLstart"
       orient="auto"
       refY="0.0"
       refX="0.0"
       id="DiamondLstart"
       style="overflow:visible">
      <path
         id="path4045"
         d="M 0,-7.0710768 L -7.0710894,0 L 0,7.0710589 L 7.0710462,0 L 0,-7.0710768 z "
         style="fill-rule:evenodd;stroke:#000000;stroke-width:1.0pt"
         transform="scale(0.8) translate(7,0)" />
    </marker>
    <marker
       inkscape:stockid="DiamondM"
       orient="auto"
       refY="0.0"
       refX="0.0"
       id="DiamondM"
       style="overflow:visible">
      <path
         id="path4039"
         d="M 0,-7.0710768 L -7.0710894,0 L 0,7.0710589 L 7.0710462,0 L 0,-7.0710768 z "
         style="fill-rule:evenodd;stroke:#000000;stroke-width:1.0pt"
         transform="scale(0.4)" />
    </marker>
    <marker
       inkscape:stockid="Arrow1Lstart"
       orient="auto"
       refY="0"
       refX="0"
       id="Arrow1Lstart"
       style="overflow:visible">
      <path
         id="path3957"
         d="M 0,0 5,-5 -12.5,0 5,5 0,0 z"
         style="fill-rule:evenodd;stroke:#000000;stroke-width:1pt"
         transform="matrix(0.8,0,0,0.8,10,0)"
         inkscape:connector-curvature="0" />
    </marker>
    <marker
       inkscape:stockid="Arrow1Lend"
       orient="auto"
       refY="0"
       refX="0"
       id="Arrow1Lend"
       style="overflow:visible">
      <path
         id="path3960"
         d="M 0,0 5,-5 -12.5,0 5,5 0,0 z"
         style="fill-rule:evenodd;stroke:#000000;stroke-width:1pt"
         transform="matrix(-0.8,0,0,-0.8,-10,0)"
         inkscape:connector-curvature="0" />
    </marker>
    <marker
       inkscape:stockid="DiamondL"
       orient="auto"
       refY="0"
       refX="0"
       id="DiamondL-6"
       style="overflow:visible">
      <path
         inkscape:connector-curvature="0"
         id="path4036-1"
         d="M 0,-7.0710768 -7.0710894,0 0,7.0710589 7.0710462,0 0,-7.0710768 z"
         style="fill-rule:evenodd;stroke:#000000;stroke-width:1pt"
         transform="scale(0.8,0.8)" />
    </marker>
    <marker
       inkscape:stockid="Arrow1Lend"
       orient="auto"
       refY="0"
       refX="0"
       id="Arrow1Lend-4"
       style="overflow:visible">
      <path
         id="path3960-2"
         d="M 0,0 5,-5 -12.5,0 5,5 0,0 z"
         style="fill-rule:evenodd;stroke:#000000;stroke-width:1pt"
         transform="matrix(-0.8,0,0,-0.8,-10,0)"
         inkscape:connector-curvature="0" />
    </marker>
    <marker
       inkscape:stockid="DiamondL"
       orient="auto"
       refY="0"
       refX="0"
       id="marker7416"
       style="overflow:visible">
      <path
         inkscape:connector-curvature="0"
         id="path7418"
         d="M 0,-7.0710768 -7.0710894,0 0,7.0710589 7.0710462,0 0,-7.0710768 z"
         style="fill-rule:evenodd;stroke:#000000;stroke-width:1pt"
         transform="scale(0.8,0.8)" />
    </marker>
    <marker
       inkscape:stockid="DiamondL"
       orient="auto"
       refY="0"
       refX="0"
       id="DiamondL-1"
       style="overflow:visible">
      <path
         inkscape:connector-curvature="0"
         id="path4036-9"
         d="M 0,-7.0710768 -7.0710894,0 0,7.0710589 7.0710462,0 0,-7.0710768 z"
         style="fill-rule:evenodd;stroke:#000000;stroke-width:1pt"
         transform="scale(0.8,0.8)" />
    </marker>
    <marker
       inkscape:stockid="Arrow1Lend"
       orient="auto"
       refY="0"
       refX="0"
       id="Arrow1Lend-8"
       style="overflow:visible">
      <path
         id="path3960-6"
         d="M 0,0 5,-5 -12.5,0 5,5 0,0 z"
         style="fill-rule:evenodd;stroke:#000000;stroke-width:1pt"
         transform="matrix(-0.8,0,0,-0.8,-10,0)"
         inkscape:connector-curvature="0" />
    </marker>
    <marker
       inkscape:stockid="DiamondL"
       orient="auto"
       refY="0"
       refX="0"
       id="marker7510"
       style="overflow:visible">
      <path
         inkscape:connector-curvature="0"
         id="path7512"
         d="M 0,-7.0710768 -7.0710894,0 0,7.0710589 7.0710462,0 0,-7.0710768 z"
         style="fill-rule:evenodd;stroke:#000000;stroke-width:1pt"
         transform="scale(0.8,0.8)" />
    </marker>
  </defs>
  <sodipodi:namedview
     id="base"
     pagecolor="#ffffff"
     bordercolor="#666666"
     borderopacity="1.0"
     inkscape:pageopacity="0.0"
     inkscape:pageshadow="2"
     inkscape:zoom="1.979899"
     inkscape:cx="257.21661"
     inkscape:cy="460.17838"
     inkscape:document-units="px"
     inkscape:current-layer="layer2"
     showgrid="false"
     fit-margin-top="10"
     fit-margin-right="10"
     fit-margin-bottom="10"
     fit-margin-left="10"
     inkscape:window-width="1920"
     inkscape:window-height="1017"
     inkscape:window-x="-8"
     inkscape:window-y="-8"
     inkscape:window-maximized="1" />
  <metadata
     id="metadata7">
    <rdf:RDF>
      <cc:Work
         rdf:about="">
        <dc:format>image/svg+xml</dc:format>
        <dc:type
           rdf:resource="http://purl.org/dc/dcmitype/StillImage" />
        <dc:title></dc:title>
      </cc:Work>
    </rdf:RDF>
  </metadata>
  <g
     inkscape:label="Repère"
     inkscape:groupmode="layer"
     id="layer1"
     transform="translate(-58.5,-66.750129)"
     style="display:inline"
     sodipodi:insensitive="true">
    <path
       style="fill:none;stroke:#000000;stroke-width:1px;stroke-linecap:butt;stroke-linejoin:miter;stroke-opacity:1;marker-start:url(#Arrow1Lstart);marker-end:none"
       d="m 80.812204,225.71798 0,604.41064"
       id="path2985"
       inkscape:connector-curvature="0" />
    <path
       style="fill:none;stroke:#000000;stroke-width:0.99999994px;stroke-linecap:butt;stroke-linejoin:miter;stroke-opacity:1;marker-start:none;marker-end:url(#Arrow1Lend)"
       d="m 68.487335,817.11847 628.696325,0"
       id="path2985-7"
       inkscape:connector-curvature="0" />
  </g>
  <g
     inkscape:groupmode="layer"
     id="layer3"
     inkscape:label="Aire">
    <path
       style="fill:none;stroke:#0000c4;stroke-width:1.5;stroke-linecap:butt;stroke-linejoin:miter;stroke-opacity:1;stroke-miterlimit:4;stroke-dasharray:12,12;stroke-dashoffset:0"
       d="m 137.38075,224.86205 c 0,534.37069 0,534.37069 0,534.37069"
       id="path7441"
       inkscape:connector-curvature="0" />
    <path
       style="fill:none;stroke:#0000a9;stroke-width:1.5;stroke-linecap:butt;stroke-linejoin:miter;stroke-opacity:1;stroke-miterlimit:4;stroke-dasharray:12,12;stroke-dashoffset:0"
       d="m 577.80726,551.14132 c 0,213.14219 0,213.14219 0,213.14219"
       id="path7443"
       inkscape:connector-curvature="0" />
    <path
       style="fill:#ff0000;fill-opacity:0.15686275;fill-rule:nonzero;stroke:#0000a9;stroke-width:0;stroke-miterlimit:4;stroke-opacity:1;stroke-dasharray:none;stroke-dashoffset:0"
       d="m 138.57301,508.17848 c 0.0644,-132.92345 0.26269,-240.99715 0.44054,-240.16377 0.17784,0.83337 1.06905,6.21484 1.98046,11.9588 12.1158,76.35734 54.63445,140.46436 123.88275,186.78281 19.94143,13.33834 49.38721,29.10732 70.34883,37.67363 8.22676,3.362 8.33674,3.45296 6.16072,5.09433 -2.13881,1.61331 -1.93903,1.69563 5.76584,2.37614 5.54458,0.48972 13.03768,2.39292 24.54243,6.23368 56.73395,18.94005 123.72659,31.33248 185.46948,34.3085 13.32205,0.64213 14.30323,0.8319 16.92006,3.27277 l 2.77792,2.5911 0,95.7755 0,95.7755 -219.20311,0 -219.2031,0 0.11718,-241.67899 z"
       id="path7445"
       inkscape:connector-curvature="0" />
  </g>
  <g
     inkscape:groupmode="layer"
     id="layer2"
     inkscape:label="Courbe"
     transform="translate(-58.5,-66.750129)"
     style="display:inline">
    <path
       style="fill:none;stroke:#000000;stroke-width:1px;stroke-linecap:butt;stroke-linejoin:miter;stroke-opacity:1;marker-start:url(#DiamondL);marker-mid:url(#Arrow1Lstart);marker-end:url(#DiamondL);display:inline"
       d="m 195.88075,291.61218 c 0,164.14979 109.094,245.97215 218.69431,286.75706 109.60031,40.78491 219.70694,40.53237 221.7322,40.53237"
       id="path5684"
       inkscape:connector-curvature="0"
       sodipodi:nodetypes="csc" />
    <path
       style="fill:none;stroke:#000000;stroke-width:1px;stroke-linecap:butt;stroke-linejoin:miter;stroke-opacity:1;marker-start:url(#DiamondL);marker-mid:url(#Arrow1Lstart);marker-end:url(#DiamondL);display:inline"
       d="m 636.31143,618.83607 c 0,-164.14979 -109.094,-245.97215 -218.69431,-286.75706 C 308.01681,291.2941 197.91018,291.54664 195.88492,291.54664"
       id="path5684-5"
       inkscape:connector-curvature="0"
       sodipodi:nodetypes="csc" />
    <path
       style="fill:#0000ff;fill-opacity:0.15686275;fill-rule:nonzero;stroke:#0000c4;stroke-width:0;stroke-miterlimit:4;stroke-opacity:1;stroke-dasharray:none;stroke-dashoffset:0"
       d="m 550.34429,550.29142 c -22.2075,-1.54994 -51.22743,-4.79141 -70.35715,-7.85877 C 442.50536,536.42263 398.68976,525.76441 372.13,516.19623 l -3.92857,-1.41528 2.32143,-0.92939 c 1.27678,-0.51117 2.32143,-1.14523 2.32143,-1.40901 0,-0.2638 -3.61608,-0.71282 -8.03572,-0.99784 -7.57299,-0.48838 -8.64754,-0.76205 -18.66089,-4.75271 -38.22532,-15.23406 -72.70542,-34.47273 -100.08911,-55.84615 -22.64925,-17.67812 -44.93021,-41.00311 -59.80805,-62.61049 -28.93485,-42.02265 -45.10345,-91.76496 -47.43144,-145.9217 l -0.48483,-11.27884 2.39513,-2.47116 2.39514,-2.47116 6.82417,7.6e-4 c 15.2657,0.002 52.7319,3.57312 79.17455,7.54726 39.58867,5.94989 79.41218,15.34667 112.46632,26.53764 l 5.53098,1.87259 -2.67384,1.21239 -2.67384,1.2124 2.5,0.41939 c 1.375,0.23067 5.21689,0.62225 8.53755,0.87019 5.09753,0.38062 7.68457,1.1084 16.61616,4.67447 73.19592,29.22453 127.59148,70.20946 162.14357,122.16883 27.11087,40.76929 41.96061,87.63906 44.78112,141.34123 l 0.61901,11.78571 -2.5651,2.67857 -2.5651,2.67857 -6.46218,-0.10142 c -3.5542,-0.0558 -10.31932,-0.37064 -15.0336,-0.69966 z"
       id="path8588"
       inkscape:connector-curvature="0"
       transform="translate(58.5,66.750129)" />
    <path
       style="fill:#0000ff;fill-opacity:0.15686275;fill-rule:nonzero;stroke:#0000c4;stroke-width:0;stroke-miterlimit:4;stroke-opacity:1;stroke-dasharray:none;stroke-dashoffset:0"
       d="m 138.55857,677.99693 c 0,-39.41686 0.21424,-146.5157 0.47608,-237.99743 l 0.47608,-166.33042 2.30282,12.10457 c 2.93366,15.42053 5.25014,24.45478 9.67162,37.71929 18.33221,54.99689 54.29412,101.86877 106.56563,138.89512 18.91863,13.40094 50.08316,30.58909 75.3292,41.54624 4.8125,2.08869 8.75,4.05564 8.75,4.371 0,0.31535 -0.5625,0.90488 -1.25,1.31007 -1.91211,1.12693 -0.11728,1.94249 5.49115,2.49513 7.87801,0.77628 11.58951,2.10264 17.10086,6.11125 5.26514,3.82955 6.56085,4.19691 5.08656,1.44218 -0.45651,-0.853 -0.67631,-1.70463 -0.48845,-1.8925 0.18787,-0.18787 6.56213,1.58617 14.16502,3.94232 53.95883,16.72193 107.90975,26.57409 166.68057,30.43811 21.78145,1.43207 22.091,1.48232 25.03015,4.06292 l 2.46985,2.16857 0,95.64029 0,95.64029 -218.92857,0 -218.92857,0 0,-71.667 z"
       id="path8590"
       inkscape:connector-curvature="0"
       transform="translate(58.5,66.750129)" />
    <path
       style="fill:#0000ff;fill-opacity:0.15686275;fill-rule:nonzero;stroke:#0000c4;stroke-width:0;stroke-miterlimit:4;stroke-opacity:1;stroke-dasharray:none;stroke-dashoffset:0"
       d="m 355.7859,513.35752 c -2.61155,-0.6864 -6.36014,-1.30458 -10.26786,-1.69326 -2.01339,-0.20027 -3.82143,-0.40662 -4.01785,-0.45856 -0.55317,-0.14626 -1.16072,-0.47468 -1.16072,-0.62744 0,-0.0759 0.47695,-0.50496 1.05989,-0.95352 0.58294,-0.44856 1.1125,-0.98134 1.17681,-1.18395 0.26299,-0.82861 -0.49894,-1.23519 -9.29027,-4.95735 -3.24107,-1.37224 -8.23685,-3.5838 -11.10173,-4.91459 -6.03941,-2.8054 -15.67481,-7.59312 -15.54419,-7.72373 0.0492,-0.0492 1.94879,0.84099 4.22139,1.97811 11.21411,5.61112 26.34741,12.21121 39.96139,17.42836 3.90026,1.49466 5.26024,2.09889 6.02679,2.67763 0.54446,0.41107 0.98992,0.77793 0.98992,0.81524 0,0.12152 -0.42043,0.0423 -2.05357,-0.38694 l 0,0 z"
       id="path8592"
       inkscape:connector-curvature="0"
       transform="translate(58.5,66.750129)" />
  </g>
  <g
     inkscape:groupmode="layer"
     id="layer4"
     inkscape:label="Texte"
     sodipodi:insensitive="true">
    <flowRoot
       xml:space="preserve"
       id="flowRoot7448"
       style="font-size:40px;font-style:normal;font-weight:normal;line-height:125%;letter-spacing:0px;word-spacing:0px;fill:#000000;fill-opacity:1;stroke:none;font-family:Sans"
       transform="translate(78.571429,40)"><flowRegion
         id="flowRegion7450"><rect
           id="rect7452"
           width="130"
           height="64.285713"
           x="72.85714"
           y="143.37488" /></flowRegion><flowPara
         id="flowPara7454">$A$</flowPara></flowRoot>    <flowRoot
       xml:space="preserve"
       id="flowRoot7456"
       style="font-size:40px;font-style:normal;font-weight:normal;line-height:125%;letter-spacing:0px;word-spacing:0px;fill:#000000;fill-opacity:1;stroke:none;font-family:Sans"
       transform="translate(51.428571,44.285714)"><flowRegion
         id="flowRegion7458"><rect
           id="rect7460"
           width="115.71429"
           height="68.571426"
           x="532.85712"
           y="463.37488" /></flowRegion><flowPara
         id="flowPara7462">$B$</flowPara></flowRoot>    <flowRoot
       xml:space="preserve"
       id="flowRoot7464"
       style="font-size:40px;font-style:normal;font-weight:normal;line-height:125%;letter-spacing:0px;word-spacing:0px;fill:#000000;fill-opacity:1;stroke:none;font-family:Sans"><flowRegion
         id="flowRegion7466"><rect
           id="rect7468"
           width="206.5762"
           height="87.378197"
           x="542.95697"
           y="777.41547" /></flowRegion><flowPara
         id="flowPara7470">$V_B$</flowPara></flowRoot>    <flowRoot
       xml:space="preserve"
       id="flowRoot7472"
       style="font-size:40px;font-style:normal;font-weight:normal;line-height:125%;letter-spacing:0px;word-spacing:0px;fill:#000000;fill-opacity:1;stroke:none;font-family:Sans"
       transform="translate(30,-12.857143)"><flowRegion
         id="flowRegion7474"><rect
           id="rect7476"
           width="211.42857"
           height="82.85714"
           x="72.85714"
           y="777.66058" /></flowRegion><flowPara
         id="flowPara7478">$V_A$</flowPara></flowRoot>    <flowRoot
       xml:space="preserve"
       id="flowRoot7480"
       style="font-size:40px;font-style:normal;font-weight:normal;line-height:125%;letter-spacing:0px;word-spacing:0px;fill:#000000;fill-opacity:1;stroke:none;font-family:Sans"
       transform="translate(-7.1428571,82.857143)"><flowRegion
         id="flowRegion7482"><rect
           id="rect7484"
           width="180"
           height="80"
           x="35.714287"
           y="36.232021" /></flowRegion><flowPara
         id="flowPara7486">$P$</flowPara></flowRoot>    <flowRoot
       xml:space="preserve"
       id="flowRoot7488"
       style="font-size:40px;font-style:normal;font-weight:normal;line-height:125%;letter-spacing:0px;word-spacing:0px;fill:#000000;fill-opacity:1;stroke:none;font-family:Sans"
       transform="translate(-51.428571,44.285714)"><flowRegion
         id="flowRegion7490"><rect
           id="rect7492"
           width="94.285713"
           height="57.142857"
           x="664.28571"
           y="656.23199" /></flowRegion><flowPara
         id="flowPara7494">$V$</flowPara></flowRoot>  </g>
</svg>
