<?xml version="1.0" encoding="UTF-8" standalone="no"?>
<!-- Created with Inkscape (http://www.inkscape.org/) -->

<svg
   xmlns:dc="http://purl.org/dc/elements/1.1/"
   xmlns:cc="http://creativecommons.org/ns#"
   xmlns:rdf="http://www.w3.org/1999/02/22-rdf-syntax-ns#"
   xmlns:svg="http://www.w3.org/2000/svg"
   xmlns="http://www.w3.org/2000/svg"
   xmlns:sodipodi="http://sodipodi.sourceforge.net/DTD/sodipodi-0.dtd"
   xmlns:inkscape="http://www.inkscape.org/namespaces/inkscape"
   width="210mm"
   height="297mm"
   id="svg2"
   version="1.1"
   inkscape:version="0.48.4 r9939"
   sodipodi:docname="Nouveau document 1">
  <defs
     id="defs4">
    <marker
       inkscape:stockid="Arrow1Lend"
       orient="auto"
       refY="0.0"
       refX="0.0"
       id="Arrow1Lend"
       style="overflow:visible;">
      <path
         id="path3820"
         d="M 0.0,0.0 L 5.0,-5.0 L -12.5,0.0 L 5.0,5.0 L 0.0,0.0 z "
         style="fill-rule:evenodd;stroke:#000000;stroke-width:1.0pt;"
         transform="scale(0.8) rotate(180) translate(12.5,0)" />
    </marker>
    <marker
       inkscape:stockid="StopL"
       orient="auto"
       refY="0.0"
       refX="0.0"
       id="StopL"
       style="overflow:visible">
      <path
         id="path3986"
         d="M 0.0,5.65 L 0.0,-5.65"
         style="fill:none;fill-opacity:0.75000000;fill-rule:evenodd;stroke:#000000;stroke-width:1.0pt"
         transform="scale(0.8)" />
    </marker>
    <marker
       style="overflow:visible"
       id="DistanceEnd"
       refX="0.0"
       refY="0.0"
       orient="auto"
       inkscape:stockid="DistanceEnd">
      <g
         id="g2301">
        <path
           style="fill:none;stroke:#ffffff;stroke-width:1.15;stroke-linecap:square"
           d="M 0,0 L -2,0"
           id="path2316" />
        <path
           style="fill:#000000;fill-rule:evenodd;stroke:none"
           d="M 0,0 L -13,4 L -9,0 -13,-4 L 0,0 z "
           id="path2312" />
        <path
           style="fill:none;stroke:#000000;stroke-width:1;stroke-linecap:square"
           d="M 0,-4 L 0,40"
           id="path2314" />
      </g>
    </marker>
    <marker
       style="overflow:visible"
       id="DistanceStart"
       refX="0.0"
       refY="0.0"
       orient="auto"
       inkscape:stockid="DistanceStart">
      <g
         id="g2300">
        <path
           style="fill:none;stroke:#ffffff;stroke-width:1.15;stroke-linecap:square"
           d="M 0,0 L 2,0"
           id="path2306" />
        <path
           style="fill:#000000;fill-rule:evenodd;stroke:none"
           d="M 0,0 L 13,4 L 9,0 13,-4 L 0,0 z "
           id="path2302" />
        <path
           style="fill:none;stroke:#000000;stroke-width:1;stroke-linecap:square"
           d="M 0,-4 L 0,40"
           id="path2304" />
      </g>
    </marker>
  </defs>
  <sodipodi:namedview
     id="base"
     pagecolor="#ffffff"
     bordercolor="#666666"
     borderopacity="1.0"
     inkscape:pageopacity="0.0"
     inkscape:pageshadow="2"
     inkscape:zoom="2"
     inkscape:cx="384.11329"
     inkscape:cy="590.34986"
     inkscape:document-units="px"
     inkscape:current-layer="layer1"
     showgrid="false"
     inkscape:window-width="1920"
     inkscape:window-height="1017"
     inkscape:window-x="-8"
     inkscape:window-y="-8"
     inkscape:window-maximized="1" />
  <metadata
     id="metadata7">
    <rdf:RDF>
      <cc:Work
         rdf:about="">
        <dc:format>image/svg+xml</dc:format>
        <dc:type
           rdf:resource="http://purl.org/dc/dcmitype/StillImage" />
        <dc:title></dc:title>
      </cc:Work>
    </rdf:RDF>
  </metadata>
  <g
     inkscape:label="Calque 1"
     inkscape:groupmode="layer"
     id="layer1">
    <path
       style="fill:none;stroke:#000000;stroke-width:1px;stroke-linecap:butt;stroke-linejoin:miter;stroke-opacity:1"
       d="m 60.537334,450.31127 165.225636,0"
       id="path3007"
       inkscape:connector-curvature="0" />
    <path
       style="fill:none;stroke:#0000a9;stroke-width:1;stroke-linecap:butt;stroke-linejoin:miter;stroke-opacity:1;stroke-miterlimit:4;stroke-dasharray:none;marker-start:url(#StopL);marker-end:url(#StopL)"
       d="m 226.81826,450.33158 239.12831,0"
       id="path3007-4"
       inkscape:connector-curvature="0" />
    <path
       style="fill:none;stroke:#000000;stroke-width:1.0038017px;stroke-linecap:butt;stroke-linejoin:miter;stroke-opacity:1"
       d="m 466.37654,450.2355 174.36047,0"
       id="path3007-4-0"
       inkscape:connector-curvature="0" />
    <path
       style="fill:none;stroke:#00a900;stroke-width:0.99805325px;stroke-linecap:butt;stroke-linejoin:miter;stroke-opacity:1;marker-end:url(#Arrow1Lend)"
       d="m 347.85714,450.79287 0,137.99885"
       id="path4844"
       inkscape:connector-curvature="0" />
    <path
       style="fill:#00a900;fill-opacity:1;stroke:#00a900;stroke-width:0.08928572;stroke-miterlimit:4;stroke-opacity:1;stroke-dasharray:none;stroke-dashoffset:0"
       d=""
       id="path5044"
       inkscape:connector-curvature="0" />
    <path
       style="fill:#00a900;fill-opacity:1;stroke:#00a900;stroke-width:0.00390625;stroke-miterlimit:4;stroke-opacity:1;stroke-dasharray:none;stroke-dashoffset:0"
       d="m 350.81636,575.12879 c 1.12354,-1.12355 2.04329,-2.04233 2.04387,-2.04174 5.9e-4,5.8e-4 -0.26131,0.91941 -0.582,2.04183 l -0.58308,2.04076 -1.4608,9.8e-4 -1.46079,9.8e-4 2.0428,-2.04281 z"
       id="path5046"
       inkscape:connector-curvature="0" />
    <path
       style="fill:#00a900;fill-opacity:1;stroke:#00a900;stroke-width:0.0078125;stroke-miterlimit:4;stroke-opacity:1;stroke-dasharray:none;stroke-dashoffset:0"
       d="m 345.78475,583.34149 c -0.008,-0.0235 -2.92579,-10.24081 -2.92579,-10.24608 0,-0.003 1.125,1.11912 2.49999,2.49411 l 2.49999,2.49998 0.45509,-0.45447 0.45509,-0.45447 1.46123,-0.003 1.46123,-0.003 -0.88227,3.08793 -0.88227,3.08792 -2.06944,0 c -1.64852,0 -2.07013,-0.002 -2.07285,-0.01 l 0,0 z"
       id="path5048"
       inkscape:connector-curvature="0" />
    <path
       style="fill:#00a900;fill-opacity:1;stroke:#00a900;stroke-width:0.00390625;stroke-miterlimit:4;stroke-opacity:1;stroke-dasharray:none;stroke-dashoffset:0"
       d="m 344.90013,580.25208 -0.0184,-0.0654 10e-4,-2.53711 0.001,-2.5371 1.48832,1.48726 1.48833,1.48727 0.45503,-0.45463 0.45504,-0.45462 1.46188,-0.003 c 1.20583,-0.002 1.46157,-0.002 1.46009,0.003 -9.9e-4,0.003 -0.20232,0.70737 -0.4474,1.56567 -0.24508,0.85831 -0.44653,1.56363 -0.44766,1.56739 -0.002,0.006 -0.14536,0.007 -2.9405,0.007 l -2.93845,0 -0.0184,-0.0654 0,0 z"
       id="path5050"
       inkscape:connector-curvature="0" />
    <path
       style="fill:#00a900;fill-opacity:1;stroke:#00a900;stroke-width:0.00390625;stroke-miterlimit:4;stroke-opacity:1;stroke-dasharray:none;stroke-dashoffset:0"
       d="m 344.91555,580.31068 c -10e-4,-0.004 -0.009,-0.0321 -0.0178,-0.063 l -0.0158,-0.0562 0,-2.54145 0,-2.54145 1.23828,1.23828 1.23828,1.23828 0,-1.28809 0,-1.28808 0.49805,0 0.49804,0 0,1.28807 0,1.28808 -0.24902,0.24977 c -0.17831,0.17884 -0.13921,0.14093 0.1377,-0.13352 0.21269,-0.2108 0.41834,-0.41504 0.45699,-0.45385 l 0.0703,-0.0706 0.54496,-7.8e-4 0.54496,-7.7e-4 -0.35351,-0.003 c -0.19444,-10e-4 -0.43789,-0.003 -0.54102,-0.003 l -0.18749,-5.6e-4 1.08007,-1.08008 1.08007,-1.08008 0.6863,0 c 0.65155,0 0.68624,3.5e-4 0.68492,0.007 -7.6e-4,0.004 -0.003,0.0117 -0.006,0.0176 -0.002,0.006 -0.003,0.0108 -0.002,0.0108 9.1e-4,0 -9.2e-4,0.006 -0.004,0.0137 -0.003,0.008 -0.005,0.0137 -0.004,0.0137 9.9e-4,0 -7.7e-4,0.006 -0.004,0.0137 -0.003,0.008 -0.005,0.0137 -0.004,0.0137 0.001,0 -7.6e-4,0.006 -0.004,0.0137 -0.003,0.008 -0.005,0.0137 -0.004,0.0137 9.9e-4,0 -7.6e-4,0.006 -0.004,0.0137 -0.003,0.008 -0.005,0.0137 -0.004,0.0137 9.9e-4,0 -7.7e-4,0.006 -0.004,0.0137 -0.003,0.008 -0.005,0.0137 -0.004,0.0137 9.9e-4,0 -7.7e-4,0.006 -0.004,0.0137 -0.003,0.008 -0.005,0.0137 -0.004,0.0137 0.001,0 -7.6e-4,0.006 -0.004,0.0137 -0.003,0.008 -0.005,0.0137 -0.004,0.0137 9.9e-4,0 -7.6e-4,0.006 -0.004,0.0137 -0.003,0.008 -0.005,0.0137 -0.004,0.0137 9.9e-4,0 -7.7e-4,0.006 -0.004,0.0137 -0.003,0.008 -0.005,0.0137 -0.004,0.0137 9.9e-4,0 -7.7e-4,0.006 -0.004,0.0137 -0.003,0.008 -0.005,0.0137 -0.004,0.0137 10e-4,0 -7.6e-4,0.006 -0.004,0.0137 -0.003,0.008 -0.005,0.0137 -0.004,0.0137 9.9e-4,0 -7.6e-4,0.006 -0.004,0.0137 -0.003,0.008 -0.005,0.0137 -0.004,0.0137 9.9e-4,0 -7.7e-4,0.006 -0.004,0.0137 -0.003,0.008 -0.005,0.0137 -0.004,0.0137 9.9e-4,0 -7.7e-4,0.006 -0.004,0.0137 -0.003,0.008 -0.005,0.0137 -0.004,0.0137 0.001,0 -7.6e-4,0.006 -0.004,0.0137 -0.003,0.008 -0.005,0.0137 -0.004,0.0137 9.9e-4,0 -7.6e-4,0.006 -0.004,0.0137 -0.003,0.008 -0.005,0.0137 -0.004,0.0137 9.9e-4,0 -7.7e-4,0.006 -0.004,0.0137 -0.003,0.008 -0.005,0.0137 -0.004,0.0137 9.9e-4,0 -7.7e-4,0.006 -0.004,0.0137 -0.003,0.008 -0.005,0.0137 -0.004,0.0137 0.001,0 -7.6e-4,0.006 -0.004,0.0137 -0.003,0.008 -0.005,0.0137 -0.004,0.0137 9.9e-4,0 -7.6e-4,0.006 -0.004,0.0137 -0.003,0.008 -0.005,0.0137 -0.004,0.0137 9.9e-4,0 -7.7e-4,0.006 -0.004,0.0137 -0.003,0.008 -0.005,0.0137 -0.004,0.0137 9.9e-4,0 -7.7e-4,0.006 -0.004,0.0137 -0.003,0.008 -0.005,0.0137 -0.004,0.0137 10e-4,0 -7.6e-4,0.006 -0.004,0.0137 -0.003,0.008 -0.005,0.0137 -0.004,0.0137 9.9e-4,0 -7.6e-4,0.006 -0.004,0.0137 -0.003,0.008 -0.005,0.0137 -0.004,0.0137 9.9e-4,0 -7.7e-4,0.006 -0.004,0.0137 -0.003,0.008 -0.005,0.0137 -0.004,0.0137 9.9e-4,0 -7.7e-4,0.006 -0.004,0.0137 -0.003,0.008 -0.005,0.0137 -0.004,0.0137 10e-4,0 -7.6e-4,0.006 -0.004,0.0137 -0.003,0.008 -0.005,0.0137 -0.004,0.0137 9.9e-4,0 -7.6e-4,0.006 -0.004,0.0137 -0.003,0.008 -0.005,0.0137 -0.004,0.0137 9.9e-4,0 -7.7e-4,0.006 -0.004,0.0137 -0.003,0.008 -0.005,0.0137 -0.004,0.0137 9.9e-4,0 -7.7e-4,0.006 -0.004,0.0137 -0.003,0.008 -0.005,0.0137 -0.004,0.0137 0.001,0 -7.6e-4,0.006 -0.004,0.0137 -0.003,0.008 -0.005,0.0137 -0.004,0.0137 9.9e-4,0 -7.6e-4,0.006 -0.004,0.0137 -0.003,0.008 -0.005,0.0137 -0.004,0.0137 9.9e-4,0 -7.7e-4,0.006 -0.004,0.0137 -0.003,0.008 -0.005,0.0137 -0.004,0.0137 9.9e-4,0 -7.7e-4,0.006 -0.004,0.0137 -0.003,0.008 -0.005,0.0137 -0.004,0.0137 10e-4,0 -7.6e-4,0.006 -0.004,0.0137 -0.003,0.008 -0.005,0.0137 -0.004,0.0137 9.9e-4,0 -7.6e-4,0.006 -0.004,0.0137 -0.003,0.008 -0.005,0.0137 -0.004,0.0137 9.9e-4,0 -7.7e-4,0.006 -0.004,0.0137 -0.003,0.008 -0.005,0.0137 -0.004,0.0137 9.9e-4,0 -7.7e-4,0.006 -0.004,0.0137 -0.003,0.008 -0.005,0.0137 -0.004,0.0137 10e-4,0 -7.6e-4,0.006 -0.004,0.0137 -0.003,0.008 -0.005,0.0137 -0.004,0.0137 9.9e-4,0 -7.6e-4,0.006 -0.004,0.0137 -0.003,0.008 -0.005,0.0137 -0.004,0.0137 9.9e-4,0 -7.7e-4,0.006 -0.004,0.0137 -0.003,0.008 -0.005,0.0137 -0.004,0.0137 9.9e-4,0 -7.7e-4,0.006 -0.004,0.0137 -0.003,0.008 -0.005,0.0137 -0.004,0.0137 0.001,0 -7.6e-4,0.006 -0.004,0.0137 -0.003,0.008 -0.005,0.0137 -0.004,0.0137 9.9e-4,0 -7.6e-4,0.006 -0.004,0.0137 -0.003,0.008 -0.005,0.0137 -0.004,0.0137 9.9e-4,0 -7.7e-4,0.006 -0.004,0.0137 -0.003,0.008 -0.005,0.0137 -0.004,0.0137 9.9e-4,0 -7.7e-4,0.006 -0.004,0.0137 -0.003,0.008 -0.005,0.0137 -0.004,0.0137 10e-4,0 -7.6e-4,0.006 -0.004,0.0137 -0.003,0.008 -0.005,0.0137 -0.004,0.0137 9.9e-4,0 -7.6e-4,0.006 -0.004,0.0137 -0.003,0.008 -0.005,0.0137 -0.004,0.0137 9.9e-4,0 -7.7e-4,0.006 -0.004,0.0137 -0.003,0.008 -0.005,0.0137 -0.004,0.0137 9.9e-4,0 -7.7e-4,0.006 -0.004,0.0137 -0.003,0.008 -0.005,0.0137 -0.004,0.0137 10e-4,0 -7.6e-4,0.006 -0.004,0.0137 -0.003,0.008 -0.005,0.0137 -0.004,0.0137 9.9e-4,0 -7.6e-4,0.006 -0.004,0.0137 -0.003,0.008 -0.005,0.0137 -0.004,0.0137 9.9e-4,0 -7.7e-4,0.006 -0.004,0.0137 -0.003,0.008 -0.005,0.0137 -0.004,0.0137 9.9e-4,0 -7.7e-4,0.006 -0.004,0.0137 -0.003,0.008 -0.005,0.0137 -0.004,0.0137 0.001,0 -7.6e-4,0.006 -0.004,0.0137 -0.003,0.008 -0.005,0.0137 -0.004,0.0137 9.9e-4,0 -7.6e-4,0.006 -0.004,0.0137 -0.003,0.008 -0.005,0.0137 -0.004,0.0137 9.9e-4,0 -7.7e-4,0.006 -0.004,0.0137 -0.003,0.008 -0.005,0.0137 -0.004,0.0137 9.9e-4,0 -7.7e-4,0.006 -0.004,0.0137 -0.003,0.008 -0.005,0.0137 -0.004,0.0137 10e-4,0 -7.6e-4,0.006 -0.004,0.0137 -0.003,0.008 -0.005,0.0137 -0.004,0.0137 9.9e-4,0 -7.6e-4,0.006 -0.004,0.0137 -0.003,0.008 -0.005,0.0137 -0.004,0.0137 9.9e-4,0 -7.7e-4,0.006 -0.004,0.0137 -0.003,0.008 -0.005,0.0137 -0.004,0.0137 9.9e-4,0 -7.7e-4,0.006 -0.004,0.0137 -0.003,0.008 -0.005,0.0137 -0.004,0.0137 10e-4,0 -7.6e-4,0.006 -0.004,0.0137 -0.003,0.008 -0.005,0.0137 -0.004,0.0137 9.9e-4,0 -7.6e-4,0.006 -0.004,0.0137 -0.003,0.008 -0.005,0.0137 -0.004,0.0137 9.9e-4,0 -7.7e-4,0.006 -0.004,0.0137 -0.003,0.008 -0.005,0.0137 -0.004,0.0137 9.9e-4,0 -7.7e-4,0.006 -0.004,0.0137 -0.003,0.008 -0.005,0.0137 -0.004,0.0137 0.001,0 -7.6e-4,0.006 -0.004,0.0137 -0.003,0.008 -0.005,0.0137 -0.004,0.0137 9.9e-4,0 -7.6e-4,0.006 -0.004,0.0137 -0.003,0.008 -0.005,0.0137 -0.004,0.0137 9.9e-4,0 -7.7e-4,0.006 -0.004,0.0137 -0.003,0.008 -0.005,0.0137 -0.004,0.0137 9.9e-4,0 -7.7e-4,0.006 -0.004,0.0137 -0.003,0.008 -0.005,0.0137 -0.004,0.0137 0.001,0 -7.6e-4,0.006 -0.004,0.0137 -0.003,0.008 -0.005,0.0137 -0.004,0.0137 9.9e-4,0 -7.6e-4,0.006 -0.004,0.0137 -0.003,0.008 -0.005,0.0137 -0.004,0.0137 9.9e-4,0 -7.7e-4,0.006 -0.004,0.0137 -0.003,0.008 -0.005,0.0137 -0.004,0.0137 9.9e-4,0 -7.7e-4,0.006 -0.004,0.0137 -0.003,0.008 -0.005,0.0137 -0.004,0.0137 10e-4,0 -7.6e-4,0.006 -0.004,0.0137 -0.003,0.008 -0.005,0.0137 -0.004,0.0137 9.9e-4,0 -7.6e-4,0.006 -0.004,0.0137 -0.003,0.008 -0.005,0.0137 -0.004,0.0137 9.9e-4,0 -5.8e-4,0.006 -0.004,0.0127 -0.003,0.007 -0.005,0.0145 -0.006,0.0166 -2.2e-4,0.002 -10e-4,0.007 -0.003,0.0107 -0.002,0.006 -0.0462,0.007 -0.83491,0.008 l -0.83275,10e-4 0.83327,9.6e-4 c 0.79151,9.2e-4 0.83317,10e-4 0.83122,0.008 -10e-4,0.004 -0.20082,0.70293 -0.44377,1.55371 -0.24294,0.85078 -0.44443,1.55522 -0.44774,1.56543 l -0.006,0.0186 -2.93887,0 c -2.79554,0 -2.93898,-3.3e-4 -2.94094,-0.007 l 0,0 z"
       id="path5052"
       inkscape:connector-curvature="0" />
    <path
       style="fill:#00a900;fill-opacity:1;stroke:#00a900;stroke-width:0.00390625;stroke-miterlimit:4;stroke-opacity:1;stroke-dasharray:none;stroke-dashoffset:0"
       d="m 344.91318,580.31067 c 0,-0.004 -0.007,-0.0314 -0.0156,-0.0615 l -0.0156,-0.0547 0,-2.54297 0,-2.54298 1.23535,1.23535 c 0.67945,0.67945 1.23667,1.23535 1.23828,1.23535 0.002,0 0.003,-0.57832 0.003,-1.28515 l 0,-1.28516 0.49805,0 0.49804,0 0,1.29002 0,1.29003 0.20607,-0.20604 0.20607,-0.20604 0.29491,-9.5e-4 0.29491,-9.5e-4 -0.29294,-10e-4 -0.29295,-10e-4 1.08201,-1.082 1.082,-1.08201 0.68848,0 c 0.37866,0 0.68846,10e-4 0.68845,0.003 0,0.002 -0.0335,0.11894 -0.0743,0.26074 -0.0409,0.1418 -0.075,0.26045 -0.0758,0.26367 -8.2e-4,0.003 -0.003,0.0107 -0.006,0.0166 -0.002,0.006 -0.003,0.0107 -0.002,0.0107 9.1e-4,0 -9.1e-4,0.006 -0.004,0.0137 -0.003,0.008 -0.005,0.0137 -0.004,0.0137 9.9e-4,0 -7.7e-4,0.006 -0.004,0.0137 -0.003,0.008 -0.005,0.0137 -0.004,0.0137 9.9e-4,0 -7.7e-4,0.006 -0.004,0.0137 -0.003,0.008 -0.005,0.0137 -0.004,0.0137 10e-4,0 -7.6e-4,0.006 -0.004,0.0137 -0.003,0.008 -0.005,0.0137 -0.004,0.0137 9.9e-4,0 -7.6e-4,0.006 -0.004,0.0137 -0.003,0.008 -0.005,0.0137 -0.004,0.0137 9.9e-4,0 -7.7e-4,0.006 -0.004,0.0137 -0.003,0.008 -0.005,0.0137 -0.004,0.0137 9.9e-4,0 -7.7e-4,0.006 -0.004,0.0137 -0.003,0.008 -0.005,0.0137 -0.004,0.0137 0.001,0 -7.6e-4,0.006 -0.004,0.0137 -0.003,0.008 -0.005,0.0137 -0.004,0.0137 9.9e-4,0 -7.6e-4,0.006 -0.004,0.0137 -0.003,0.008 -0.005,0.0137 -0.004,0.0137 9.9e-4,0 -7.7e-4,0.006 -0.004,0.0137 -0.003,0.008 -0.005,0.0137 -0.004,0.0137 9.9e-4,0 -7.7e-4,0.006 -0.004,0.0137 -0.003,0.008 -0.005,0.0137 -0.004,0.0137 0.001,0 -7.6e-4,0.006 -0.004,0.0137 -0.003,0.008 -0.005,0.0137 -0.004,0.0137 9.9e-4,0 -7.6e-4,0.006 -0.004,0.0137 -0.003,0.008 -0.005,0.0137 -0.004,0.0137 9.9e-4,0 -7.7e-4,0.006 -0.004,0.0137 -0.003,0.008 -0.005,0.0137 -0.004,0.0137 9.9e-4,0 -7.7e-4,0.006 -0.004,0.0137 -0.003,0.008 -0.005,0.0137 -0.004,0.0137 10e-4,0 -7.6e-4,0.006 -0.004,0.0137 -0.003,0.008 -0.005,0.0137 -0.004,0.0137 9.9e-4,0 -7.6e-4,0.006 -0.004,0.0137 -0.003,0.008 -0.005,0.0137 -0.004,0.0137 9.9e-4,0 -7.7e-4,0.006 -0.004,0.0137 -0.003,0.008 -0.005,0.0137 -0.004,0.0137 9.9e-4,0 -7.7e-4,0.006 -0.004,0.0137 -0.003,0.008 -0.005,0.0137 -0.004,0.0137 10e-4,0 -7.6e-4,0.006 -0.004,0.0137 -0.003,0.008 -0.005,0.0137 -0.004,0.0137 9.9e-4,0 -7.6e-4,0.006 -0.004,0.0137 -0.003,0.008 -0.005,0.0137 -0.004,0.0137 9.9e-4,0 -7.7e-4,0.006 -0.004,0.0137 -0.003,0.008 -0.005,0.0137 -0.004,0.0137 9.9e-4,0 -7.7e-4,0.006 -0.004,0.0137 -0.003,0.008 -0.005,0.0137 -0.004,0.0137 0.001,0 -7.6e-4,0.006 -0.004,0.0137 -0.003,0.008 -0.005,0.0137 -0.004,0.0137 9.9e-4,0 -7.6e-4,0.006 -0.004,0.0137 -0.003,0.008 -0.005,0.0137 -0.004,0.0137 9.9e-4,0 -7.7e-4,0.006 -0.004,0.0137 -0.003,0.008 -0.005,0.0137 -0.004,0.0137 9.9e-4,0 -7.7e-4,0.006 -0.004,0.0137 -0.003,0.008 -0.005,0.0137 -0.004,0.0137 10e-4,0 -7.6e-4,0.006 -0.004,0.0137 -0.003,0.008 -0.005,0.0137 -0.004,0.0137 9.9e-4,0 -7.6e-4,0.006 -0.004,0.0137 -0.003,0.008 -0.005,0.0137 -0.004,0.0137 9.9e-4,0 -7.7e-4,0.006 -0.004,0.0137 -0.003,0.008 -0.005,0.0137 -0.004,0.0137 9.9e-4,0 -7.7e-4,0.006 -0.004,0.0137 -0.003,0.008 -0.005,0.0137 -0.004,0.0137 10e-4,0 -7.6e-4,0.006 -0.004,0.0137 -0.003,0.008 -0.005,0.0137 -0.004,0.0137 9.9e-4,0 -7.6e-4,0.006 -0.004,0.0137 -0.003,0.008 -0.005,0.0137 -0.004,0.0137 9.9e-4,0 -7.7e-4,0.006 -0.004,0.0137 -0.003,0.008 -0.005,0.0137 -0.004,0.0137 9.9e-4,0 -7.7e-4,0.006 -0.004,0.0137 -0.003,0.008 -0.005,0.0137 -0.004,0.0137 0.001,0 -7.6e-4,0.006 -0.004,0.0137 -0.003,0.008 -0.005,0.0137 -0.004,0.0137 9.9e-4,0 -7.6e-4,0.006 -0.004,0.0137 -0.003,0.008 -0.005,0.0137 -0.004,0.0137 9.9e-4,0 -7.7e-4,0.006 -0.004,0.0137 -0.003,0.008 -0.005,0.0137 -0.004,0.0137 9.9e-4,0 -7.7e-4,0.006 -0.004,0.0137 -0.003,0.008 -0.005,0.0137 -0.004,0.0137 10e-4,0 -7.6e-4,0.006 -0.004,0.0137 -0.003,0.008 -0.005,0.0137 -0.004,0.0137 9.9e-4,0 -7.6e-4,0.006 -0.004,0.0137 -0.003,0.008 -0.005,0.0137 -0.004,0.0137 9.9e-4,0 -7.7e-4,0.006 -0.004,0.0137 -0.003,0.008 -0.005,0.0137 -0.004,0.0137 9.9e-4,0 -7.7e-4,0.006 -0.004,0.0137 -0.003,0.008 -0.005,0.0137 -0.004,0.0137 10e-4,0 -7.6e-4,0.006 -0.004,0.0137 -0.003,0.008 -0.005,0.0137 -0.004,0.0137 9.9e-4,0 -7.6e-4,0.006 -0.004,0.0137 -0.003,0.008 -0.005,0.0137 -0.004,0.0137 9.9e-4,0 -7.7e-4,0.006 -0.004,0.0137 -0.003,0.008 -0.005,0.0137 -0.004,0.0137 9.9e-4,0 -7.7e-4,0.006 -0.004,0.0137 -0.003,0.008 -0.005,0.0137 -0.004,0.0137 0.001,0 -7.6e-4,0.006 -0.004,0.0137 -0.003,0.008 -0.005,0.0137 -0.004,0.0137 9.9e-4,0 -7.6e-4,0.006 -0.004,0.0137 -0.003,0.008 -0.005,0.0137 -0.004,0.0137 9.9e-4,0 -7.7e-4,0.006 -0.004,0.0137 -0.003,0.008 -0.005,0.0137 -0.004,0.0137 9.9e-4,0 -7.7e-4,0.006 -0.004,0.0137 -0.003,0.008 -0.005,0.0137 -0.004,0.0137 10e-4,0 -7.6e-4,0.006 -0.004,0.0137 -0.003,0.008 -0.005,0.0137 -0.004,0.0137 9.9e-4,0 -7.6e-4,0.006 -0.004,0.0137 -0.003,0.008 -0.005,0.0137 -0.004,0.0137 9.9e-4,0 -7.7e-4,0.006 -0.004,0.0137 -0.003,0.008 -0.005,0.0137 -0.004,0.0137 9.9e-4,0 -7.7e-4,0.006 -0.004,0.0137 -0.003,0.008 -0.005,0.0137 -0.004,0.0137 10e-4,0 -7.6e-4,0.006 -0.004,0.0137 -0.003,0.008 -0.005,0.0137 -0.004,0.0137 9.9e-4,0 -7.6e-4,0.006 -0.004,0.0137 -0.003,0.008 -0.005,0.0137 -0.004,0.0137 9.9e-4,0 -9.5e-4,0.007 -0.004,0.0146 -0.003,0.008 -0.006,0.0147 -0.005,0.0147 5.7e-4,0 -2.3e-4,0.004 -0.002,0.009 -0.002,0.007 -0.006,0.009 -0.0191,0.009 l -0.0163,6.8e-4 0.0168,0.002 c 0.0136,10e-4 0.0164,0.003 0.0148,0.008 -0.001,0.004 -0.20075,0.7027 -0.4437,1.55348 -0.24294,0.85078 -0.44443,1.55522 -0.44774,1.56543 l -0.006,0.0186 -2.94109,0 c -2.79945,0 -2.94109,-3.3e-4 -2.94109,-0.007 z"
       id="path5054"
       inkscape:connector-curvature="0" />
    <path
       style="fill:#00a900;fill-opacity:1;stroke:#00a900;stroke-width:0.04419417;stroke-miterlimit:4;stroke-opacity:1;stroke-dasharray:none;stroke-dashoffset:0"
       d="m 346.84839,586.994 c -0.54338,-1.90185 -0.99727,-3.49272 -1.00864,-3.53526 -0.0195,-0.0728 0.0982,-0.0773 2.02215,-0.0773 1.61593,0 2.03845,0.0116 2.02192,0.0553 -0.0115,0.0304 -0.46325,1.60646 -1.00391,3.50239 -0.54066,1.89593 -0.99664,3.46193 -1.01329,3.48001 -0.0166,0.0181 -0.47485,-1.52319 -1.01823,-3.42505 z"
       id="path5056"
       inkscape:connector-curvature="0" />
    <path
       style="fill:#00a900;fill-opacity:1;stroke:#00a900;stroke-width:0.04419417;stroke-miterlimit:4;stroke-opacity:1;stroke-dasharray:none;stroke-dashoffset:0"
       d="m 347.77327,590.06739 c -0.0315,-0.11635 -0.0765,-0.2364 -0.1,-0.26678 -0.0235,-0.0304 -0.0279,-0.0552 -0.01,-0.0552 0.0181,0 0.006,-0.0329 -0.0277,-0.0731 -0.0334,-0.0402 -0.0552,-0.0849 -0.0485,-0.0994 0.0156,-0.0339 -0.0364,-0.27789 -0.0715,-0.33571 -0.0147,-0.0243 -0.0336,-0.0934 -0.0418,-0.15358 -0.008,-0.0602 -0.036,-0.13473 -0.0618,-0.16572 -0.0257,-0.031 -0.0341,-0.0563 -0.0187,-0.0563 0.0155,0 -9.8e-4,-0.0696 -0.0365,-0.15468 -0.0356,-0.0851 -0.0554,-0.15468 -0.0442,-0.15468 0.0112,0 -0.0107,-0.0746 -0.0488,-0.16573 -0.0381,-0.0911 -0.0682,-0.1707 -0.0669,-0.17677 0.001,-0.006 7.3e-4,-0.016 -10e-4,-0.0221 -0.002,-0.006 -0.0132,-0.0702 -0.0249,-0.14253 -0.0117,-0.0723 -0.0423,-0.15684 -0.0681,-0.18782 -0.0257,-0.031 -0.0341,-0.0563 -0.0187,-0.0563 0.0154,0 -9.8e-4,-0.0696 -0.0365,-0.15468 -0.0356,-0.0851 -0.0554,-0.15468 -0.0442,-0.15468 0.0112,0 -0.0107,-0.0746 -0.0488,-0.16573 -0.0381,-0.0911 -0.0682,-0.1707 -0.0669,-0.17677 0.001,-0.006 8.4e-4,-0.016 -10e-4,-0.0221 -0.002,-0.006 -0.0125,-0.0508 -0.0237,-0.0994 -0.0344,-0.14946 -0.0542,-0.22097 -0.0613,-0.22097 -0.004,0 -0.0159,-0.0398 -0.0271,-0.0884 -0.0344,-0.14946 -0.0542,-0.22097 -0.0613,-0.22097 -0.008,0 -0.0301,-0.087 -0.0661,-0.26095 -0.0146,-0.0706 -0.0462,-0.16507 -0.0702,-0.20992 -0.024,-0.0449 -0.0327,-0.0815 -0.0194,-0.0815 0.0133,0 -0.005,-0.0696 -0.0404,-0.15468 -0.0356,-0.0851 -0.0554,-0.15468 -0.0442,-0.15468 0.0112,0 -0.009,-0.0696 -0.0442,-0.15468 -0.0355,-0.0851 -0.0554,-0.15468 -0.0442,-0.15468 0.0112,0 -0.009,-0.0696 -0.0442,-0.15468 -0.0355,-0.0851 -0.0554,-0.15468 -0.0442,-0.15468 0.0112,0 -0.009,-0.0696 -0.0442,-0.15468 -0.0356,-0.0851 -0.0554,-0.15468 -0.0442,-0.15468 0.0112,0 -0.009,-0.0696 -0.0442,-0.15468 -0.0356,-0.0851 -0.0554,-0.15468 -0.0442,-0.15468 0.0112,0 -0.009,-0.0696 -0.0442,-0.15468 -0.0356,-0.0851 -0.0554,-0.15468 -0.0442,-0.15468 0.0112,0 -0.009,-0.0696 -0.0442,-0.15468 -0.0356,-0.0851 -0.0554,-0.15468 -0.0442,-0.15468 0.0112,0 -0.009,-0.0695 -0.0441,-0.15439 -0.0586,-0.14016 -0.0576,-0.15755 0.0105,-0.18854 0.0566,-0.0258 3.46292,-0.0387 3.91036,-0.0148 0.0649,0.003 0.0705,0.0198 0.0316,0.0926 -0.026,0.0486 -0.0377,0.0884 -0.0259,0.0884 0.0118,0 -0.008,0.0696 -0.0432,0.15468 -0.0355,0.0851 -0.0554,0.15468 -0.0442,0.15468 0.0112,0 -0.009,0.0696 -0.0442,0.15468 -0.0355,0.0851 -0.0554,0.15468 -0.0442,0.15468 0.0112,0 -0.009,0.0696 -0.0442,0.15468 -0.0356,0.0851 -0.0554,0.15468 -0.0442,0.15468 0.0112,0 -0.009,0.0696 -0.0442,0.15468 -0.0356,0.0851 -0.0554,0.15468 -0.0442,0.15468 0.0112,0 -0.009,0.0696 -0.0442,0.15468 -0.0356,0.0851 -0.0554,0.15468 -0.0442,0.15468 0.0112,0 -0.009,0.0696 -0.0442,0.15468 -0.0356,0.0851 -0.052,0.15468 -0.0365,0.15468 0.0155,0 0.007,0.0254 -0.0187,0.0563 -0.0257,0.031 -0.0549,0.10557 -0.0649,0.16573 -0.01,0.0602 -0.0309,0.13922 -0.0465,0.17568 -0.0156,0.0365 -0.0356,0.10606 -0.0444,0.15468 -0.009,0.0486 -0.0287,0.11822 -0.0442,0.15468 -0.0155,0.0365 -0.0369,0.11601 -0.0476,0.17677 -0.0106,0.0608 -0.0223,0.11049 -0.026,0.11049 -0.007,0 -0.0269,0.072 -0.0612,0.22097 -0.0112,0.0486 -0.0219,0.0934 -0.0237,0.0994 -0.002,0.006 -0.002,0.016 -10e-4,0.0221 10e-4,0.006 -0.0288,0.0856 -0.0669,0.17678 -0.0381,0.0911 -0.06,0.16573 -0.0488,0.16573 0.0112,0 -0.009,0.0696 -0.0442,0.15468 -0.0356,0.0851 -0.0554,0.15468 -0.0442,0.15468 0.0112,0 -0.009,0.0696 -0.0442,0.15468 -0.0356,0.0851 -0.052,0.15468 -0.0365,0.15468 0.0155,0 0.007,0.0254 -0.0187,0.0563 -0.0257,0.031 -0.0563,0.11551 -0.0681,0.18783 -0.0117,0.0723 -0.0229,0.13645 -0.0249,0.14253 -0.002,0.006 -0.003,0.016 -10e-4,0.0221 10e-4,0.006 -0.0288,0.0856 -0.0669,0.17678 -0.0381,0.0911 -0.06,0.16573 -0.0488,0.16573 0.0112,0 -0.009,0.0696 -0.0442,0.15468 -0.0356,0.0851 -0.0554,0.15468 -0.0442,0.15468 0.0112,0 -0.009,0.0696 -0.0442,0.15468 -0.0356,0.0851 -0.052,0.15468 -0.0365,0.15468 0.0155,0 0.003,0.0298 -0.0269,0.0663 -0.0303,0.0365 -0.0437,0.0663 -0.0298,0.0663 0.0139,0 -0.004,0.0696 -0.0394,0.15468 -0.0356,0.0851 -0.0554,0.15468 -0.0442,0.15468 0.0112,0 -0.009,0.0696 -0.0442,0.15468 -0.0356,0.0851 -0.0554,0.15468 -0.0442,0.15468 0.0112,0 -0.007,0.0646 -0.0396,0.14363 -0.033,0.079 -0.0618,0.16352 -0.064,0.18782 -0.0112,0.1231 -0.0866,0.0451 -0.13727,-0.14201 l 0,0 z"
       id="path5058"
       inkscape:connector-curvature="0" />
    <path
       style="fill:#00a900;fill-opacity:1;stroke:#00a900;stroke-width:0.04419417;stroke-miterlimit:4;stroke-opacity:1;stroke-dasharray:none;stroke-dashoffset:0"
       d="m 347.78002,590.12714 c -0.21038,-0.56229 -1.96271,-6.66 -1.92481,-6.6979 0.0398,-0.0398 3.92387,-0.0558 3.98119,-0.0163 0.0374,0.0257 -0.092,0.53525 -0.46897,1.84712 -0.98853,3.43996 -1.46491,5.07679 -1.48313,5.09605 -0.007,0.008 -0.0543,-0.0953 -0.10428,-0.22894 l 0,0 z"
       id="path5060"
       inkscape:connector-curvature="0" />
    <path
       style="fill:#00a900;fill-opacity:1;stroke:#00a900;stroke-width:0.04419417;stroke-miterlimit:4;stroke-opacity:1;stroke-dasharray:none;stroke-dashoffset:0"
       d="m 347.67243,589.8448 c -0.16318,-0.52471 -0.68616,-2.30889 -0.9748,-3.32561 -0.72211,-2.54361 -0.86493,-3.06744 -0.84246,-3.08994 0.0399,-0.0399 3.96216,-0.0551 4.0018,-0.0154 0.0331,0.0331 -0.56723,2.18093 -1.52642,5.46166 -0.23322,0.79768 -0.42403,1.45893 -0.42403,1.46946 0,0.0105 -0.0163,0.0191 -0.0363,0.0191 -0.02,0 -0.10896,-0.23367 -0.19779,-0.51928 z"
       id="path5062"
       inkscape:connector-curvature="0" />
    <path
       style="fill:#00a900;fill-opacity:1;stroke:#00a900;stroke-width:0.04419417;stroke-miterlimit:4;stroke-opacity:1;stroke-dasharray:none;stroke-dashoffset:0"
       d="m 347.69733,589.93319 c -0.1847,-0.57012 -0.86909,-2.91685 -1.42609,-4.89004 -0.35335,-1.25171 -0.43557,-1.59432 -0.38961,-1.62346 0.0744,-0.0471 3.95686,-0.0502 3.98595,-0.003 0.0258,0.0417 -0.10713,0.52294 -1.03997,3.76553 -0.85942,2.98739 -0.91804,3.18198 -0.95856,3.18198 -0.0177,0 -0.0949,-0.1939 -0.17172,-0.43089 z"
       id="path5064"
       inkscape:connector-curvature="0" />
    <path
       style="fill:#00a900;fill-opacity:1;stroke:#00a900;stroke-width:0.04419417;stroke-miterlimit:4;stroke-opacity:1;stroke-dasharray:none;stroke-dashoffset:0"
       d="m 347.79608,590.24733 c -0.11489,-0.27429 -1.25135,-4.16205 -1.76671,-6.04385 -0.11453,-0.41816 -0.18777,-0.76357 -0.16644,-0.7849 0.0209,-0.0209 0.93182,-0.0329 2.02416,-0.0266 l 1.98607,0.0115 -0.0136,0.12684 c -0.0189,0.17723 -1.92484,6.82023 -1.96959,6.86498 -0.0124,0.0124 -0.0547,-0.0542 -0.0939,-0.14799 l 0,0 z"
       id="path5066"
       inkscape:connector-curvature="0" />
    <path
       style="fill:#00a900;fill-opacity:1;stroke:#00a900;stroke-width:0.04419417;stroke-miterlimit:4;stroke-opacity:1;stroke-dasharray:none;stroke-dashoffset:0"
       d="m 347.79452,590.25679 c -0.21634,-0.51778 -1.98483,-6.71609 -1.94548,-6.81864 0.0173,-0.045 0.43659,-0.0567 2.03399,-0.0567 1.10673,0 2.01223,0.0169 2.01223,0.0376 0,0.0735 -0.45624,1.69933 -1.14901,4.09461 -0.8399,2.90394 -0.83714,2.89472 -0.8658,2.89472 -0.0125,0 -0.0511,-0.0682 -0.0859,-0.15149 z"
       id="path5068"
       inkscape:connector-curvature="0" />
    <path
       style="fill:#00a900;fill-opacity:1;stroke:#00a900;stroke-width:0.04419417;stroke-miterlimit:4;stroke-opacity:1;stroke-dasharray:none;stroke-dashoffset:0"
       d="m 347.82292,590.32851 c -0.0842,-0.1569 -0.44005,-1.33291 -1.09223,-3.61009 -0.76076,-2.65626 -0.91752,-3.25009 -0.87041,-3.29719 0.0209,-0.021 0.48494,-0.0439 1.03111,-0.0509 l 0.99303,-0.0128 -1.04098,-0.0102 -1.04098,-0.0102 -0.32312,-1.138 c -0.17771,-0.6259 -0.39026,-1.3667 -0.47232,-1.64623 -0.30508,-1.03916 -2.08791,-7.31331 -2.08027,-7.32092 0.004,-0.004 0.99235,0.96395 2.19554,2.15175 1.20318,1.18781 2.20252,2.16062 2.22075,2.16181 0.0182,0.001 0.0332,-3.39859 0.0332,-7.55505 l 0,-7.5572 0.48613,0 0.48614,0 0,7.59018 0,7.59019 2.23756,-2.23165 c 1.23067,-1.2274 2.22767,-2.20181 2.21557,-2.16535 -0.0121,0.0365 -0.13378,0.46404 -0.27039,0.95018 -0.38375,1.36555 -1.69879,5.97177 -2.18276,7.64559 l -0.43447,1.5026 -1.01477,0.0234 -1.01478,0.0234 1.00542,0.01 c 0.76969,0.007 1.0054,0.0227 1.00534,0.065 -1.7e-4,0.12567 -1.84284,6.56677 -1.96175,6.85735 l -0.0558,0.13637 -0.0547,-0.10186 0,0 z"
       id="path5070"
       inkscape:connector-curvature="0" />
    <path
       style="fill:#00a900;fill-opacity:1;stroke:#00a900;stroke-width:0.04419417;stroke-miterlimit:4;stroke-opacity:1;stroke-dasharray:none;stroke-dashoffset:0"
       d="m 347.79295,590.29724 c -0.18758,-0.44895 -1.96356,-6.65014 -1.96356,-6.85618 0,-0.0336 0.0812,-0.0612 0.20992,-0.0714 l 0.20993,-0.0165 -0.23032,-0.008 -0.23032,-0.008 -0.0496,-0.18783 c -0.0273,-0.1033 -0.2182,-0.7745 -0.42419,-1.49155 -0.20599,-0.71705 -0.44125,-1.54238 -0.5228,-1.83406 -0.0815,-0.29168 -0.53742,-1.8913 -1.01306,-3.55471 -0.47564,-1.6634 -0.85895,-3.03023 -0.85179,-3.03739 0.007,-0.007 0.99621,0.95236 2.1979,2.13226 l 2.18489,2.14527 0.0274,-0.83145 c 0.0151,-0.4573 0.03,-3.84936 0.0331,-7.53792 l 0.006,-6.70646 0.48613,0 0.48614,0 0,7.5572 c 0,4.15646 0.015,7.5572 0.0333,7.5572 0.0183,0 1.0168,-0.98363 2.21884,-2.18585 1.20203,-1.20222 2.19194,-2.17942 2.1998,-2.17157 0.0135,0.0135 -1.42426,5.09279 -2.42489,8.56692 l -0.45507,1.57994 -0.31091,0.009 -0.31091,0.009 0.29832,0.0155 c 0.21064,0.0109 0.29831,0.0327 0.29831,0.0741 0,0.17925 -1.96421,7.00839 -2.01577,7.00839 -0.0119,0 -0.0509,-0.0698 -0.0865,-0.15523 l 0,0 z"
       id="path5072"
       inkscape:connector-curvature="0" />
    <path
       style="fill:#00a900;fill-opacity:1;stroke:#00a900;stroke-width:0.04419417;stroke-miterlimit:4;stroke-opacity:1;stroke-dasharray:none;stroke-dashoffset:0"
       d="m 347.82821,590.3822 c -0.1026,-0.19339 -0.71957,-2.26041 -1.4451,-4.84153 -0.56118,-1.99642 -0.58808,-2.11053 -0.50929,-2.16034 0.0565,-0.0357 0.0551,-0.0419 -0.009,-0.0424 -0.0858,-7.7e-4 -0.0352,0.15715 -0.73738,-2.29878 -1.24254,-4.34577 -2.21319,-7.79417 -2.19812,-7.80924 0.009,-0.009 0.98576,0.93384 2.17035,2.09543 1.18459,1.16159 2.16828,2.11752 2.18597,2.12429 0.0383,0.0146 0.091,-6.6786 0.091,-11.55429 l 0,-3.46193 0.48613,0 0.48614,0 0.0111,6.88324 c 0.006,3.78578 0.005,7.18933 -0.002,7.56344 l -0.0127,0.68021 2.2224,-2.18989 c 1.22233,-1.20444 2.22827,-2.18416 2.23542,-2.17716 0.0213,0.0208 -1.41092,5.0763 -2.76426,9.7573 -0.0936,0.32383 -0.12695,0.38753 -0.20497,0.39183 -0.0747,0.004 -0.0778,0.009 -0.0158,0.0253 0.0425,0.0111 0.0773,0.048 0.0773,0.082 0,0.17366 -1.88588,6.77294 -1.98742,6.9546 -0.0282,0.0505 -0.0433,0.0463 -0.0796,-0.0221 l 0,0 z"
       id="path5074"
       inkscape:connector-curvature="0" />
    <path
       style="fill:#00a900;fill-opacity:1;stroke:#00a900;stroke-width:0.04419417;stroke-miterlimit:4;stroke-opacity:1;stroke-dasharray:none;stroke-dashoffset:0"
       d="m 347.80577,590.33851 c -0.18362,-0.35561 -1.9414,-6.50725 -1.95006,-6.82452 -0.002,-0.0851 -0.0263,-0.17457 -0.0532,-0.19888 -0.0269,-0.0243 -0.53842,-1.76445 -1.1366,-3.86699 -1.55539,-5.46701 -1.75902,-6.19622 -1.73656,-6.21868 0.0218,-0.0218 1.31871,1.23484 3.15248,3.05441 0.63713,0.6322 1.1717,1.13616 1.18793,1.11992 0.0471,-0.0471 0.0527,-0.55895 0.0859,-7.95458 l 0.0315,-7.01582 0.48063,0 0.48063,0 4e-5,5.91097 c 4e-5,3.25103 0.0132,6.64036 0.0292,7.53184 l 0.0291,1.62087 2.19036,-2.15976 c 1.2047,-1.18787 2.19713,-2.15299 2.2054,-2.14472 0.0242,0.0242 -1.44941,5.23956 -2.82582,10.00101 -0.0228,0.079 -0.0586,0.14363 -0.0795,0.14363 -0.0209,0 -0.0283,0.0371 -0.0164,0.0826 0.0242,0.0927 -0.20774,0.96217 -0.92131,3.45297 -0.58955,2.05792 -1.00149,3.44174 -1.05074,3.52975 -0.0288,0.0514 -0.0505,0.0379 -0.10312,-0.064 l 3e-5,0 z"
       id="path5076"
       inkscape:connector-curvature="0" />
    <path
       style="fill:#00a900;fill-opacity:1;stroke:#00a900;stroke-width:0.04419417;stroke-miterlimit:4;stroke-opacity:1;stroke-dasharray:none;stroke-dashoffset:0"
       d="m 347.8281,590.39723 c -0.1169,-0.14336 -1.70587,-5.60495 -1.93186,-6.64018 -0.0424,-0.19445 -0.0945,-0.39332 -0.11573,-0.44194 -0.0487,-0.11169 -0.67931,-2.30268 -1.75532,-6.09879 -1.14136,-4.0267 -1.12296,-3.95976 -1.09573,-3.987 0.0133,-0.0133 0.78213,0.71928 1.70857,1.62788 2.08367,2.04355 2.60123,2.53288 2.63903,2.49508 0.0241,-0.0241 0.0793,-7.90111 0.0955,-13.62623 l 0.004,-1.29268 0.48613,0 0.48614,0 0.006,3.52448 c 0.003,1.93847 0.0184,5.32406 0.0331,7.52353 l 0.0268,3.99904 2.18544,-2.15242 c 1.20199,-1.18384 2.19306,-2.14481 2.20236,-2.13551 0.009,0.009 -0.0661,0.32186 -0.16763,0.69455 -0.24612,0.90364 -2.54181,8.95792 -2.64947,9.29549 -0.0465,0.14584 -0.13792,0.48393 -0.20312,0.7513 -0.26287,1.07786 -1.84376,6.51864 -1.89408,6.51864 -0.008,0 -0.0354,-0.0249 -0.0602,-0.0552 z"
       id="path5078"
       inkscape:connector-curvature="0" />
    <path
       style="fill:#00a900;fill-opacity:1;stroke:#00a900;stroke-width:0.04419417;stroke-miterlimit:4;stroke-opacity:1;stroke-dasharray:none;stroke-dashoffset:0"
       d="m 347.64771,589.91371 c -0.36258,-1.11567 -1.34526,-4.53117 -1.70464,-5.92484 -0.0862,-0.33433 -0.31488,-1.14971 -0.50816,-1.81196 -0.40701,-1.39458 -2.3476,-8.22816 -2.45469,-8.64393 -0.0397,-0.15422 -0.0662,-0.29622 -0.0589,-0.31556 0.007,-0.0193 0.91822,0.84898 2.02418,1.92961 1.9868,1.9413 2.27872,2.21387 2.32327,2.16933 0.0125,-0.0125 0.0323,-2.5062 0.044,-5.54149 0.0117,-3.03529 0.0331,-6.37884 0.0475,-7.43011 l 0.0263,-1.91139 0.47369,0 0.4737,0 0.0293,2.39375 c 0.0161,1.31657 0.0313,4.58307 0.0337,7.2589 0.002,2.67582 0.0173,4.96983 0.0331,5.0978 l 0.0288,0.23266 2.16378,-2.12002 c 1.19008,-1.166 2.17225,-2.11154 2.1826,-2.10119 0.0283,0.0283 -0.24118,0.99463 -1.61437,5.78881 -0.68926,2.40638 -1.26321,4.42032 -1.27545,4.47542 -0.10675,0.48052 -0.91401,3.34722 -1.49796,5.31944 -0.47904,1.61789 -0.48742,1.64356 -0.5427,1.66199 -0.0303,0.0101 -0.12085,-0.20017 -0.22714,-0.52722 l 0,0 z"
       id="path5080"
       inkscape:connector-curvature="0" />
    <path
       style="fill:#000000;fill-opacity:0;stroke:#00a900;stroke-width:0.04419417000000000;stroke-miterlimit:4;stroke-opacity:1;stroke-dasharray:none;stroke-dashoffset:0"
       d="m 347.71289,590.13206 c -0.22662,-0.6358 -1.22877,-4.09414 -1.75127,-6.04355 -0.10099,-0.37675 -0.63756,-2.276 -1.19238,-4.22054 -1.60466,-5.62397 -1.86469,-6.55549 -1.84917,-6.6242 0.009,-0.0392 0.72808,0.63056 1.82656,1.70095 2.0653,2.01245 2.44187,2.36351 2.48696,2.31849 0.0401,-0.0401 0.0864,-4.98708 0.0932,-9.9726 0.003,-2.08049 0.0182,-4.02448 0.0341,-4.31998 l 0.0289,-0.53726 0.47234,0 0.47234,0 0.0291,0.86889 c 0.016,0.47789 0.0291,3.29867 0.0291,6.26839 0,5.31166 0.0286,7.81496 0.0892,7.7906 0.0169,-0.007 0.993,-0.9524 2.16915,-2.10134 1.17616,-1.14895 2.14498,-2.06946 2.15294,-2.0456 0.0204,0.0613 -0.1754,0.76637 -1.62087,5.83607 -0.70343,2.46713 -1.37193,4.83373 -1.48554,5.2591 -0.39174,1.46663 -1.71031,6.00403 -1.77536,6.10929 -0.0511,0.0827 -0.10279,0.0119 -0.20924,-0.28671 z"
       id="path5082"
       inkscape:connector-curvature="0" />
    <path
       style="fill:#0000a9;fill-opacity:1;stroke:#0000a9;stroke-width:0.03125;stroke-miterlimit:4;stroke-opacity:1;stroke-dasharray:none;stroke-dashoffset:0"
       d="m 226.32292,450.34204 0,-4.5 0.48438,0 0.48437,0 0,4.5 0,4.5 -0.48437,0 -0.48438,0 0,-4.5 z"
       id="path5088"
       inkscape:connector-curvature="0" />
    <path
       style="fill:#0000a9;fill-opacity:1;stroke:#0000a9;stroke-width:0.02209709;stroke-miterlimit:4;stroke-opacity:1;stroke-dasharray:none;stroke-dashoffset:0"
       d="m 465.4547,450.33743 0,-4.5078 0.48614,0 0.48613,0 0,4.5078 0,4.50781 -0.48613,0 -0.48614,0 0,-4.50781 z"
       id="path5090"
       inkscape:connector-curvature="0" />
    <text
       xml:space="preserve"
       style="font-size:40px;font-style:normal;font-weight:normal;line-height:125%;letter-spacing:0px;word-spacing:0px;fill:#000000;fill-opacity:1;stroke:none;font-family:Sans"
       x="304.76303"
       y="430.81531"
       id="text5092"
       sodipodi:linespacing="125%"><tspan
         sodipodi:role="line"
         id="tspan5094"
         x="304.76303"
         y="430.81531">$dS$</tspan></text>
    <text
       xml:space="preserve"
       style="font-size:40px;font-style:normal;font-weight:normal;line-height:125%;letter-spacing:0px;word-spacing:0px;fill:#000000;fill-opacity:1;stroke:none;font-family:Sans"
       x="355.67471"
       y="524.86053"
       id="text5096"
       sodipodi:linespacing="125%"><tspan
         sodipodi:role="line"
         id="tspan5098"
         x="355.67471"
         y="524.86053">$d\overrightarrow{f}</tspan></text>
    <path
       style="fill:none;stroke:#000000;stroke-width:1px;stroke-linecap:butt;stroke-linejoin:miter;stroke-opacity:1"
       d="m 352.8021,450.79106 0,4.33103 -4.46361,0"
       id="path5100"
       inkscape:connector-curvature="0" />
  </g>
</svg>
