<?xml version="1.0" encoding="UTF-8" standalone="no"?>
<!-- Created with Inkscape (http://www.inkscape.org/) -->

<svg
   xmlns:dc="http://purl.org/dc/elements/1.1/"
   xmlns:cc="http://creativecommons.org/ns#"
   xmlns:rdf="http://www.w3.org/1999/02/22-rdf-syntax-ns#"
   xmlns:svg="http://www.w3.org/2000/svg"
   xmlns="http://www.w3.org/2000/svg"
   xmlns:sodipodi="http://sodipodi.sourceforge.net/DTD/sodipodi-0.dtd"
   xmlns:inkscape="http://www.inkscape.org/namespaces/inkscape"
   width="644.0647"
   height="258.3432"
   id="svg5102"
   version="1.1"
   inkscape:version="0.48.4 r9939"
   sodipodi:docname="fig8_travail_infinitesimal.svg">
  <defs
     id="defs5104">
    <marker
       inkscape:stockid="Arrow1Lstart"
       orient="auto"
       refY="0"
       refX="0"
       id="Arrow1Lstart"
       style="overflow:visible">
      <path
         id="path3817"
         d="M 0,0 5,-5 -12.5,0 5,5 0,0 z"
         style="fill-rule:evenodd;stroke:#000000;stroke-width:1pt"
         transform="matrix(0.8,0,0,0.8,10,0)"
         inkscape:connector-curvature="0" />
    </marker>
    <marker
       inkscape:stockid="Arrow1Lend"
       orient="auto"
       refY="0"
       refX="0"
       id="Arrow1Lend"
       style="overflow:visible">
      <path
         id="path3820"
         d="M 0,0 5,-5 -12.5,0 5,5 0,0 z"
         style="fill-rule:evenodd;stroke:#000000;stroke-width:1pt"
         transform="matrix(-0.8,0,0,-0.8,-10,0)"
         inkscape:connector-curvature="0" />
    </marker>
  </defs>
  <sodipodi:namedview
     id="base"
     pagecolor="#ffffff"
     bordercolor="#666666"
     borderopacity="1.0"
     inkscape:pageopacity="0.0"
     inkscape:pageshadow="2"
     inkscape:zoom="0.98994949"
     inkscape:cx="454.65223"
     inkscape:cy="240.98537"
     inkscape:document-units="px"
     inkscape:current-layer="layer2"
     showgrid="false"
     inkscape:window-width="1920"
     inkscape:window-height="1017"
     inkscape:window-x="-8"
     inkscape:window-y="-8"
     inkscape:window-maximized="1"
     fit-margin-top="10"
     fit-margin-right="10"
     fit-margin-bottom="10"
     fit-margin-left="10" />
  <metadata
     id="metadata5107">
    <rdf:RDF>
      <cc:Work
         rdf:about="">
        <dc:format>image/svg+xml</dc:format>
        <dc:type
           rdf:resource="http://purl.org/dc/dcmitype/StillImage" />
        <dc:title></dc:title>
        <cc:license
           rdf:resource="" />
      </cc:Work>
    </rdf:RDF>
  </metadata>
  <g
     inkscape:label="Calque 1"
     inkscape:groupmode="layer"
     id="layer1"
     transform="translate(-44.5625,-451.34375)">
    <path
       style="fill:none;stroke:#000000;stroke-width:1px;stroke-linecap:butt;stroke-linejoin:miter;stroke-opacity:1;marker-end:url(#Arrow1Lend)"
       d="m 54.548237,531.12347 622.253973,0"
       id="path5110"
       inkscape:connector-curvature="0" />
    <path
       style="fill:none;stroke:#000000;stroke-width:1px;stroke-linecap:butt;stroke-linejoin:miter;stroke-opacity:1"
       d="m 462.85714,461.83776 -285.71428,0 0,138.57142 286.42857,0"
       id="path5804"
       inkscape:connector-curvature="0" />
    <path
       style="fill:none;stroke:#000000;stroke-width:1px;stroke-linecap:butt;stroke-linejoin:miter;stroke-opacity:1"
       d="m 389.28571,462.55204 0,137.14285"
       id="path5806"
       inkscape:connector-curvature="0" />
    <path
       style="fill:none;stroke:#000000;stroke-width:1px;stroke-linecap:butt;stroke-linejoin:miter;stroke-opacity:1"
       d="m 356.42857,462.19489 0,137.85715"
       id="path5808"
       inkscape:connector-curvature="0" />
    <path
       style="fill:none;stroke:#00a900;stroke-width:1;stroke-linecap:butt;stroke-linejoin:miter;stroke-miterlimit:4;stroke-opacity:1;stroke-dasharray:4, 4;stroke-dashoffset:0"
       d="m 421.42857,462.90918 0,136.42858"
       id="path5810"
       inkscape:connector-curvature="0" />
    <path
       style="fill:#666666;fill-opacity:1;fill-rule:nonzero;stroke:#000000;stroke-width:0;stroke-miterlimit:4;stroke-opacity:1;stroke-dasharray:none;stroke-dashoffset:0"
       d="m 356.79167,565.95631 0,-34.28654 16.10379,0 16.10379,0 0,34.28654 0,34.28654 -16.10379,0 -16.10379,0 0,-34.28654 z"
       id="path7537"
       inkscape:connector-curvature="0" />
    <path
       style="fill:#666666;fill-opacity:1;fill-rule:nonzero;stroke:#000000;stroke-width:0;stroke-miterlimit:4;stroke-opacity:1;stroke-dasharray:none;stroke-dashoffset:0"
       d="m 356.88095,496.53765 0,-34.2419 16.0145,0 16.01452,0 0,34.2419 0,34.24189 -16.01452,0 -16.0145,0 0,-34.24189 z"
       id="path7539"
       inkscape:connector-curvature="0" />
    <path
       style="fill:#cccccc;fill-opacity:1;fill-rule:nonzero;stroke:#000000;stroke-width:0;stroke-miterlimit:4;stroke-opacity:1;stroke-dasharray:none;stroke-dashoffset:0"
       d="m 177.48959,496.53765 0,-34.15261 89.20593,0 89.20592,0 0,34.15261 0,34.15261 -89.20592,0 -89.20593,0 0,-34.15261 z"
       id="path7541"
       inkscape:connector-curvature="0" />
    <path
       style="fill:#cccccc;fill-opacity:1;fill-rule:nonzero;stroke:#000000;stroke-width:0;stroke-miterlimit:4;stroke-opacity:1;stroke-dasharray:none;stroke-dashoffset:0"
       d="m 177.48958,566.0456 0,-34.46511 89.22125,0 89.22125,0 0,34.46511 0,34.4651 -89.22125,0 -89.22125,0 0,-34.4651 z"
       id="path7543"
       inkscape:connector-curvature="0" />
    <path
       style="fill:none;stroke:#0000a9;stroke-width:1px;stroke-linecap:butt;stroke-linejoin:miter;stroke-opacity:1;marker-start:url(#Arrow1Lstart);marker-end:none"
       d="m 257.5889,582.64125 0,87.37819"
       id="path7545"
       inkscape:connector-curvature="0" />
    <path
       style="fill:#0000a9;fill-opacity:1;fill-rule:nonzero;stroke:#0000a9;stroke-width:0.13763329;stroke-miterlimit:4;stroke-opacity:1;stroke-dasharray:0.55053314, 0.55053314;stroke-dashoffset:0"
       d="m 252.81135,597.89473 c 2e-5,-0.0688 1.0722,-3.87522 2.38261,-8.45878 l 2.38257,-8.33376 0.2623,0.88388 c 0.14427,0.48614 1.21058,4.20792 2.36957,8.27062 1.159,4.06271 2.13552,7.47198 2.17005,7.57615 0.0345,0.10417 -1.02435,-0.88964 -2.35307,-2.20846 l -2.41585,-2.39787 -2.39912,2.39662 c -1.31951,1.31814 -2.39909,2.34036 -2.39906,2.2716 z"
       id="path8099"
       inkscape:connector-curvature="0" />
    <text
       xml:space="preserve"
       style="font-size:40px;font-style:normal;font-weight:normal;line-height:125%;letter-spacing:0px;word-spacing:0px;fill:#000000;fill-opacity:1;stroke:none;font-family:Sans"
       x="393.52594"
       y="586.3205"
       id="text8307"
       sodipodi:linespacing="125%"><tspan
         sodipodi:role="line"
         id="tspan8309"
         x="393.52594"
         y="586.3205">$\overrightarrow{dl}$</tspan></text>
  </g>
  <g
     inkscape:groupmode="layer"
     id="layer2"
     inkscape:label="Fleches"
     transform="translate(-44.5625,-451.34375)">
    <path
       style="fill:#9a0e0e;fill-opacity:0.98431373;stroke:#a90000;stroke-width:1px;stroke-linecap:butt;stroke-linejoin:miter;stroke-opacity:1;marker-end:url(#Arrow1Lend)"
       d="m 356.42857,531.11218 -82.14286,0"
       id="path8312"
       inkscape:connector-curvature="0" />
    <path
       style="fill:#9a0e0e;fill-opacity:0.98431373;fill-rule:nonzero;stroke:#a90000;stroke-width:0;stroke-miterlimit:4;stroke-opacity:1;stroke-dasharray:none;stroke-dashoffset:0"
       d="m 281.18781,533.52443 c -4.32143,-1.24832 -7.96349,-2.30685 -8.09347,-2.35229 -0.12998,-0.0454 3.40573,-1.11884 7.85714,-2.38532 4.45141,-1.26649 8.214,-2.33975 8.36133,-2.38504 0.14732,-0.0453 -0.79653,0.99217 -2.09744,2.30545 l -2.3653,2.38779 2.36282,2.36769 c 1.29954,1.30223 2.24339,2.35952 2.09743,2.34954 -0.14595,-0.01 -3.80109,-1.0395 -8.12251,-2.28782 z"
       id="path8502"
       inkscape:connector-curvature="0" />
    <text
       xml:space="preserve"
       style="font-size:40px;font-style:normal;font-weight:normal;line-height:125%;letter-spacing:0px;word-spacing:0px;fill:#000000;fill-opacity:1;stroke:none;font-family:Sans"
       x="297.995"
       y="516.98132"
       id="text8504"
       sodipodi:linespacing="125%"><tspan
         sodipodi:role="line"
         id="tspan8506"
         x="297.995"
         y="516.98132">$\overrightarrow{F_{ext}}$</tspan></text>
    <text
       xml:space="preserve"
       style="font-size:40px;font-style:normal;font-weight:normal;line-height:125%;letter-spacing:0px;word-spacing:0px;fill:#000000;fill-opacity:1;stroke:none;font-family:Sans"
       x="158.59395"
       y="698.80878"
       id="text8508"
       sodipodi:linespacing="125%"><tspan
         sodipodi:role="line"
         id="tspan8510"
         x="158.59395"
         y="698.80878">Gaz sous pression $P$</tspan></text>
    <path
       style="fill:none;stroke:#0000a9;stroke-width:1px;stroke-linecap:butt;stroke-linejoin:miter;stroke-opacity:1;marker-end:url(#Arrow1Lend)"
       d="m 436.59091,531.19737 35.35534,0"
       id="path8512"
       inkscape:connector-curvature="0" />
    <path
       style="fill:#0000a9;fill-opacity:1;fill-rule:nonzero;stroke:#0000a9;stroke-width:0;stroke-miterlimit:4;stroke-opacity:1;stroke-dasharray:none;stroke-dashoffset:0"
       d="m 458.78857,533.67849 2.47753,-2.48349 -2.47753,-2.48349 c -1.36264,-1.36592 -2.44739,-2.47353 -2.41056,-2.46136 0.0368,0.0122 3.92897,1.12472 8.64919,2.47233 4.72022,1.34761 8.58223,2.46024 8.58223,2.47252 0,0.0123 -3.86201,1.12491 -8.58223,2.47252 -4.72022,1.34761 -8.61236,2.46016 -8.64919,2.47233 -0.0368,0.0122 1.04792,-1.09544 2.41056,-2.46136 z"
       id="path9114"
       inkscape:connector-curvature="0" />
    <text
       xml:space="preserve"
       style="font-size:40px;font-style:normal;font-weight:normal;line-height:125%;letter-spacing:0px;word-spacing:0px;fill:#000000;fill-opacity:1;stroke:none;font-family:Sans"
       x="432.29153"
       y="523.30475"
       id="text9116"
       sodipodi:linespacing="125%"><tspan
         sodipodi:role="line"
         id="tspan9118"
         x="432.29153"
         y="523.30475">$\overrightarrow{i}$</tspan></text>
  </g>
</svg>
